<svg width="499.99999999999994" height="499.99999999999994" xmlns="http://www.w3.org/2000/svg" preserveAspectRatio="xMidYMid meet" version="1.0">
 <metadata/>

 <g>
  <title>Layer 1</title>
  <g id="svg_1" fill="#000000" transform="translate(189.647 614.833) scale(0.053731 -0.053731)">
   <path id="svg_2" d="m591.46027,10723.93841c-11,-2 -150,-8 -308,-14c-199,-7 -299,-15 -321,-24c-56,-23 -115,-108 -283,-411c-183,-328 -684,-1207 -739,-1297c-16,-26 -36,-50 -44,-54c-8,-4 -199,-9 -425,-11c-443,-4 -491,-9 -581,-59c-105,-57 -92,-38 -371,-554c-20,-36 -48,-88 -63,-115c-39,-70 -134,-263 -151,-305c-7,-19 -13,-66 -13,-105c1,-74 28,-154 81,-239c42,-66 249,-432 392,-696c89,-163 263,-474 271,-485c20,-27 172,-318 190,-365c20,-49 20,-55 5,-99c-16,-48 -109,-225 -263,-499c-164,-291 -165,-292 -160,-391c3,-67 11,-100 34,-151c31,-70 123,-244 184,-350c20,-36 66,-114 100,-175c125,-217 201,-317 276,-361c71,-42 176,-47 734,-34c272,6 614,14 760,17c275,6 522,-7 569,-30c17,-8 78,-102 193,-297c196,-330 280,-464 359,-570c72,-98 113,-117 272,-130c235,-20 681,-8 827,21c77,15 150,60 213,130c47,51 299,459 519,839c152,263 208,361 244,425c21,39 48,86 59,105c11,20 43,76 70,125c60,107 111,158 185,187c52,20 79,22 499,30c375,7 450,11 479,25c65,31 96,75 348,493c58,96 128,211 155,255c101,162 123,213 123,290c0,81 -22,137 -127,313c-35,59 -101,172 -147,252c-84,146 -193,331 -369,625c-115,194 -287,463 -370,580c-34,47 -61,91 -61,98c0,6 14,37 31,67c17,30 51,93 76,140c26,47 56,101 68,120c12,19 61,105 110,190c49,85 96,166 105,180c16,23 54,92 122,219c15,29 28,68 28,86c0,52 -17,87 -210,415c-37,63 -82,142 -99,175c-195,364 -241,429 -329,466c-26,11 -82,24 -125,29c-43,5 -486,12 -985,15c-530,4 -929,11 -959,16c-69,13 -83,31 -217,276c-232,424 -320,559 -390,596c-39,21 -54,22 -296,23c-140,1 -264,0 -275,-2zm-368,-141c71,-34 68,-32 60,-39c-3,-3 -32,3 -65,14c-32,12 -68,19 -79,16c-22,-6 -38,9 -28,26c11,17 53,11 112,-17zm-166,-160c122,-163 290,-438 425,-697l72,-140l-19,-38c-11,-21 -52,-91 -93,-155c-40,-65 -126,-205 -191,-311c-65,-106 -148,-237 -186,-290c-38,-53 -69,-103 -69,-110c0,-11 366,-13 2145,-10c1180,2 2145,2 2145,0c0,-1 -20,-37 -44,-80c-24,-42 -78,-138 -119,-212c-41,-74 -106,-191 -144,-260c-38,-69 -94,-170 -123,-225c-79,-151 -81,-152 -142,-157c-29,-2 -361,2 -738,10c-414,9 -1197,15 -1978,16l-1292,1l-66,115c-36,63 -118,207 -182,320c-185,329 -323,553 -389,633c-12,16 -23,37 -23,46c0,10 26,60 57,112c53,88 379,655 428,744c260,476 435,775 453,775c4,0 37,-39 73,-87zm1187,25c7,-7 12,-25 12,-40c0,-21 -6,-31 -26,-38c-32,-13 -30,-13 -48,6c-9,8 -16,26 -16,39c0,37 52,59 78,33zm2514,-799c73,-19 120,-83 188,-259l21,-55l-50,49l-50,49l-17,-39l-17,-39l-13,53c-14,60 -47,102 -79,102c-13,0 -34,16 -54,40c-33,41 -81,68 -161,91c-87,24 -68,31 65,24c72,-3 147,-11 167,-16zm-4814,-895c45,-30 190,-253 374,-579c95,-168 143,-254 208,-370c93,-167 148,-265 300,-535c258,-456 303,-536 380,-675c43,-77 111,-196 150,-265c112,-194 331,-573 466,-807c67,-116 136,-247 154,-289l32,-78l-22,-45c-18,-39 -210,-372 -405,-706c-29,-49 -65,-115 -80,-145c-15,-30 -45,-82 -67,-116l-40,-62l-471,-6c-260,-3 -669,-9 -909,-12l-438,-6l0,24c0,14 6,38 14,54c8,16 38,79 66,139c155,332 288,574 354,643c84,89 67,86 527,92c381,5 408,6 428,24c11,10 23,34 27,52c8,43 -44,150 -227,469c-133,233 -358,625 -389,680c-9,17 -77,134 -150,260c-72,127 -179,313 -237,415c-58,102 -129,226 -158,275c-29,50 -104,180 -168,290c-207,361 -352,610 -553,950c-115,195 -136,237 -137,276c-2,27 3,36 27,47c55,27 132,31 526,26c325,-5 399,-8 418,-20zm-1333,-683c-30,-87 -31,-191 -2,-191c7,0 28,16 47,35c18,19 35,33 37,31c2,-1 -11,-34 -28,-71c-57,-126 -73,-269 -44,-390c8,-33 15,-64 15,-70c0,-15 -87,122 -116,181c-53,111 -56,255 -8,348c33,64 106,178 110,173c3,-2 -2,-23 -11,-46zm4407,-440c223,-3 409,-9 413,-13c10,-10 -57,-134 -356,-658c-89,-157 -170,-298 -179,-315c-272,-480 -381,-669 -617,-1063c-143,-238 -178,-290 -189,-281c-8,6 -14,16 -14,21c0,17 -65,148 -116,235c-27,46 -98,167 -158,270c-60,104 -130,224 -156,268c-27,44 -57,96 -68,115c-21,38 -149,264 -277,490c-45,80 -102,181 -126,225c-24,44 -48,87 -54,97c-5,9 -34,59 -62,110c-29,51 -66,116 -81,143c-77,133 -182,326 -185,338c-1,9 74,13 338,17c513,8 1430,9 1887,1zm1825,-43c15,-12 298,-436 343,-513c13,-22 46,-78 75,-125c50,-81 102,-169 266,-450c112,-192 289,-514 289,-526c0,-18 -82,-23 -490,-30c-420,-7 -519,0 -570,36c-37,26 -90,104 -155,225c-26,50 -51,95 -55,100c-4,6 -42,73 -85,150c-119,215 -233,385 -258,385c-12,0 -80,-115 -390,-660c-101,-179 -315,-555 -475,-836c-259,-456 -398,-703 -642,-1139c-169,-304 -219,-391 -337,-590c-163,-276 -256,-420 -270,-420c-6,0 -23,16 -36,36c-58,86 -357,592 -357,604c0,3 -27,54 -60,114c-33,61 -60,117 -60,126c0,21 173,354 220,425c10,14 32,52 49,85c18,33 50,89 72,124c21,34 39,65 39,66c0,2 32,57 71,122c40,65 77,127 83,138c6,11 47,80 91,153c244,404 395,661 653,1112c140,245 266,465 280,490c25,45 104,183 240,419c40,69 72,126 72,129c0,6 121,213 144,246l20,29l609,-6c470,-4 612,-9 624,-19zm888,-1839c10,-15 -4,-61 -17,-57c-23,8 -33,35 -19,52c16,19 27,20 36,5zm-15,-144c18,-21 3,-55 -25,-55c-33,0 -40,16 -21,45c19,29 29,31 46,10zm-6585,-232c-39,-95 -65,-312 -48,-403c11,-58 32,-63 80,-15c19,19 37,34 38,33c2,-2 -7,-34 -21,-73c-31,-93 -34,-240 -4,-317c11,-28 18,-53 16,-55c-6,-6 -143,200 -177,267c-47,91 -51,178 -15,290c27,86 120,290 131,290c4,0 4,-8 0,-17zm6409,-80c-38,-66 -128,-186 -191,-254c-66,-71 -125,-97 -230,-104l-78,-5l45,20c75,35 182,121 213,172c11,17 32,32 59,40c33,9 62,32 123,95c44,45 82,83 83,83c2,0 -9,-21 -24,-47zm-4786,-121c17,-19 32,-36 32,-38c0,-9 -49,-2 -109,15c-62,17 -66,35 -6,24c27,-6 28,-5 22,27c-6,30 -6,31 11,19c9,-7 32,-29 50,-47zm-1262,-977c-5,-15 -7,-15 -23,0c-14,14 -14,18 -2,25c18,12 34,-4 25,-25zm-26,-9c0,-11 -19,-15 -25,-6c-3,5 1,10 9,10c9,0 16,-2 16,-4zm3926,-688c-8,-18 -27,-62 -41,-98c-45,-109 -105,-217 -147,-264c-56,-65 -101,-76 -323,-82l-180,-5l91,25c111,30 196,71 294,144c96,72 226,196 276,265c21,30 41,53 42,52c2,-2 -3,-18 -12,-37z"/>
   <path id="svg_3" d="m-41.53973,10285.93841c-81,-92 -161,-244 -191,-361c-11,-43 -19,-81 -17,-82c2,-2 26,27 54,64c29,38 78,97 111,133c53,58 62,64 79,53c24,-14 32,-8 32,24c0,38 26,16 109,-90c98,-123 170,-246 222,-376c45,-111 63,-121 34,-18c-58,206 -327,687 -385,687c-10,0 -31,-15 -48,-34z"/>
   <path id="svg_4" d="m3676.46027,8528.93841c181,-33 246,-57 190,-72c-25,-6 -27,-27 -2,-27c16,-1 52,-22 52,-32c0,-2 -27,-17 -60,-33c-64,-31 -69,-45 -14,-45c29,0 34,-3 34,-24c0,-25 -87,-207 -151,-318c-29,-49 -54,-78 -85,-98c-41,-25 -42,-28 -22,-34c63,-17 83,-2 145,107c21,38 43,76 48,85c6,9 44,80 86,157c84,154 106,194 151,273c16,29 28,58 25,65c-3,9 -63,12 -248,13l-244,1l95,-18z"/>
   <path id="svg_5" d="m-1690.53973,8660.93841c-50,-3 -94,-9 -97,-12c-4,-3 26,-9 66,-12c110,-8 423,-74 539,-112c32,-11 60,-29 80,-53l31,-37l-7,32c-5,27 -4,32 8,27c17,-6 167,-183 256,-301c56,-76 87,-109 61,-65c-51,83 -143,249 -212,382c-55,106 -93,135 -193,150c-73,10 -374,11 -532,1z"/>
   <path id="svg_6" d="m646.46027,5613.93841c0,-11 18,-74 40,-139c32,-94 79,-292 80,-337c0,-18 -84,-50 -117,-45c-18,3 -33,4 -33,2c0,-3 23,-16 50,-30c28,-14 50,-29 50,-34c0,-5 -15,-53 -34,-108c-46,-130 -153,-322 -272,-487c-72,-99 -169,-169 -324,-234c-22,-9 -19,-11 25,-11c66,0 240,33 260,49c14,12 56,79 135,215c57,98 170,298 170,301c0,2 37,63 82,136c111,181 148,249 148,274c0,26 -87,197 -154,304c-81,127 -106,161 -106,144z"/>
   <path id="svg_7" d="m-1146.53973,4512.93841c-94,-198 -119,-302 -81,-333c21,-18 221,-31 309,-21l70,8l-55,2c-69,1 -226,25 -262,40c-28,11 -46,50 -33,71c5,8 25,10 59,6c32,-3 62,-1 81,8l30,13l-37,7c-34,6 -63,26 -39,26c5,0 22,5 38,11l28,11l-42,19c-45,19 -52,32 -29,58c14,16 47,211 36,211c-4,0 -36,-62 -73,-137z"/>
   <path id="svg_8" d="m2201.46027,7548.93841c-38,-5 -137,-20 -220,-34c-82,-13 -176,-27 -207,-31c-94,-11 -66,-23 60,-26l117,-3l3,-30c6,-57 10,-59 51,-22c80,72 107,65 91,-23c-5,-25 -7,-46 -6,-47c1,-1 23,16 49,38c52,45 55,41 36,-40c-5,-24 -8,-45 -6,-48c7,-6 103,120 137,181c21,36 29,62 25,76c-7,22 -17,23 -130,9z"/>
   <path id="svg_9" d="m-45.53973,7532.93841c-16,-2 -28,-8 -28,-13c0,-28 100,-191 135,-220c16,-14 17,-13 10,10c-4,14 -16,45 -26,69c-11,24 -17,46 -14,49c2,3 24,-12 49,-32c24,-20 47,-36 50,-36c3,0 6,18 6,39c0,22 4,42 9,46c5,3 30,-13 56,-35c49,-42 65,-44 65,-7c0,13 7,33 16,45c14,21 23,22 137,23l122,1l-90,19c-183,38 -403,56 -497,42z"/>
   <path id="svg_10" d="m2571.46027,7390.93841c-18,-10 -38,-36 -49,-62c-10,-24 -27,-64 -37,-89c-28,-67 -49,-134 -44,-139c7,-6 8,-4 39,79c16,41 32,79 36,84c12,12 31,-29 39,-82c7,-53 26,-65 41,-26c10,25 12,26 29,10c28,-26 33,-19 26,34c-6,46 -5,50 14,50c11,0 25,-8 30,-17c9,-15 10,-13 11,14c1,132 -56,193 -135,144z"/>
   <path id="svg_11" d="m4354.46027,6564.93841c5,-11 19,-41 31,-67c26,-55 81,-240 81,-273c0,-31 -31,-55 -72,-55c-19,0 -37,-3 -41,-6c-7,-8 12,-28 36,-37c34,-13 16,-24 -90,-56c-60,-18 -119,-36 -133,-41c-24,-7 206,-5 355,5c90,5 145,21 145,42c0,16 -145,261 -227,383c-49,73 -100,136 -85,105z"/>
   <path id="svg_12" d="m806.46027,4061.93841c0,-183 79,-410 201,-576c73,-99 82,-94 191,89c111,188 112,191 15,98c-104,-102 -120,-105 -188,-34c-91,94 -173,268 -199,419c-6,40 -14,72 -16,72c-2,0 -4,-31 -4,-68z"/>
  </g>
 </g>
</svg>